<?xml version="1.0" encoding="UTF-8"?>
<svg width="144px" height="135px" viewBox="0 0 84 75" version="1.1" xmlns="http://www.w3.org/2000/svg" xmlns:xlink="http://www.w3.org/1999/xlink">
    <!-- Generator: Sketch 40.2 (33826) - http://www.bohemiancoding.com/sketch -->
    <title>icon_reactjs</title>
    <desc>Created with Sketch.</desc>
    <defs></defs>
    <g id="Page-1" stroke="none" stroke-width="1" fill="none" fill-rule="evenodd">
        <g id="TM---Home---1.0-Copy" transform="translate(-388.000000, -4031.000000)">
            <g id="Group-7" transform="translate(210.000000, 3811.000000)">
                <g id="Group" transform="translate(0.000000, 220.000000)">
                    <text id="React.js-Development" font-family="Lora-Regular, Lora" font-size="28" font-weight="normal" fill="#212121">
                        <tspan x="0" y="91">React.js </tspan>
                        <tspan x="0" y="125">Development</tspan>
                    </text>
                    <g id="Group-2" transform="translate(180.000000, 2.000000)">
                        <ellipse id="Oval" fill="#00D8FF" cx="40.0043043" cy="35.3702055" rx="7.44593692" ry="7.46720545"></ellipse>
                        <path d="M40.0043043,20.1878155 C50.0014842,20.1878155 59.2886085,21.6264214 66.2910575,24.0439937 C74.7280148,26.9567799 79.9153989,31.3721761 79.9153989,35.3702055 C79.9153989,39.5365807 74.4176623,44.2270461 65.3576252,47.2374759 C58.5077551,49.5134948 49.4943228,50.7014423 40.0043043,50.7014423 C30.2745826,50.7014423 21.0610761,49.5862809 14.1356586,47.2123208 C5.37187384,44.2082914 0.0932096475,39.4569476 0.0932096475,35.3702055 C0.0932096475,31.4046247 5.04608534,27.0234633 13.3644527,24.1149937 C20.3930241,21.6576792 29.909462,20.1878155 40.0043043,20.1878155 L40.0043043,20.1878155 Z" id="Shape" stroke="#00D8FF" stroke-width="3.56215213"></path>
                        <path d="M26.8253803,27.8227715 C31.819666,19.1378491 37.7019666,11.7883816 43.2884601,6.91275052 C50.0194434,1.03835639 56.4249351,-1.26237107 59.8784416,0.734857442 C63.4774026,2.81618449 64.7826345,9.93568344 62.856846,19.3103627 C61.4008163,26.3981572 57.9241558,34.8220021 53.1832282,43.0664864 C48.3225232,51.5192075 42.7565121,58.9661698 37.2460111,63.7967002 C30.2729499,69.9095472 23.5317254,72.1215618 20.0014842,70.0799769 C16.5760297,68.0988239 15.2658998,61.6074591 16.9092393,52.9278952 C18.2977365,45.5942055 21.7822635,36.5926855 26.8253803,27.8227715 L26.8253803,27.8227715 Z" id="Shape" stroke="#00D8FF" stroke-width="3.56215213"></path>
                        <path d="M26.8379963,43.0885157 C21.8293135,34.4119287 18.4178108,25.6307023 16.9957699,18.3419644 C15.2823748,9.56014256 16.4938033,2.84565618 19.9440445,0.842622642 C23.5394434,-1.24480713 30.3418182,1.17663522 37.4787384,7.53180503 C42.8748052,12.3365849 48.4157328,19.5641468 53.1704638,27.8007421 C58.045269,36.2452767 61.6989981,44.8004046 63.1201484,52.0005786 C64.91859,61.1119476 63.4628571,68.0736688 59.9360297,70.1212075 C56.5138404,72.1080168 50.251577,70.0045115 43.574026,64.2419015 C37.9320223,59.3729686 31.8958071,51.8499455 26.8379963,43.0885157 L26.8379963,43.0885157 Z" id="Shape" stroke="#00D8FF" stroke-width="3.56215213"></path>
                    </g>
                </g>
            </g>
        </g>
    </g>
</svg>