<?xml version="1.0" encoding="UTF-8"?>
<svg width="140px" height="148px" viewBox="0 0 80 88" version="1.1" xmlns="http://www.w3.org/2000/svg" xmlns:xlink="http://www.w3.org/1999/xlink">
    <!-- Generator: Sketch 40.2 (33826) - http://www.bohemiancoding.com/sketch -->
    <title>icon_nodejs</title>
    <desc>Created with Sketch.</desc>
    <defs></defs>
    <g id="Page-1" stroke="none" stroke-width="1" fill="none" fill-rule="evenodd">
        <g id="TM---Home---1.0-Copy" transform="translate(-750.000000, -4024.000000)">
            <g id="Group-7" transform="translate(210.000000, 3811.000000)">
                <g id="Group-3" transform="translate(360.000000, 213.000000)">
                    <text id="Node.js-Development" font-family="Lora-Regular, Lora" font-size="28" font-weight="normal" fill="#212121">
                        <tspan x="0" y="98">Node.js </tspan>
                        <tspan x="0" y="132">Development</tspan>
                    </text>
                    <g id="Node-Icon" transform="translate(180.000000, 0.000000)" fill="#8CC84B">
                        <path d="M36.4075472,1.11360964 C38.5830188,-0.125820988 41.4169813,-0.131454763 43.5905659,1.11360964 C54.526415,7.26381464 65.4660378,13.40463 76.4,19.5585909 C78.4566038,20.7116369 79.8320756,22.9895602 79.8113206,25.3482342 L79.8113206,62.3508722 C79.826415,64.8071982 78.3150944,67.1395813 76.1452831,68.2663366 C65.2452831,74.3827387 54.3509434,80.5066529 43.4528303,86.6230554 C41.2320756,87.8868989 38.3415094,87.7892466 36.1905659,86.4221173 C32.9226416,84.5366803 29.6490566,82.6606331 26.3811321,80.7770742 C25.7132076,80.380832 24.9603773,80.0653405 24.4886793,79.4212123 C24.9056604,78.8615903 25.6509434,78.7921072 26.2566038,78.5479768 C27.6207547,78.1160541 28.8735849,77.4230998 30.1264151,76.7508024 C30.4433962,76.5348412 30.8301887,76.6174698 31.1339623,76.8108962 C33.9283019,78.4052544 36.6981131,80.0465613 39.5018869,81.6258961 C40.1,81.9695566 40.7056603,81.5132207 41.2169813,81.229654 C51.9132075,75.2127816 62.6226416,69.2184447 73.3169813,63.1996942 C73.7132075,63.0100239 73.9320756,62.5912466 73.9,62.1593239 C73.9075472,49.9528102 73.9018869,37.7444184 73.9037734,25.5379046 C73.9490566,25.0477662 73.6641509,24.5970641 73.2188678,24.3961261 C62.3566038,18.3078927 51.5,12.2102696 40.6396225,6.12015818 C40.2509434,5.85724866 39.7490566,5.85537075 39.3603775,6.11828027 C28.5,12.2102696 17.645283,18.3135264 6.78490566,24.4017599 C6.34150944,24.6026979 6.04339622,25.0458882 6.09622641,25.5379046 C6.09811322,37.7444184 6.09622641,49.9528102 6.09622641,62.1612016 C6.05849056,62.5931246 6.29245284,63.0025122 6.68679244,63.1884268 C9.58490566,64.8240997 12.4867924,66.4485048 15.3867924,68.078544 C17.0207547,68.9536571 19.0264151,69.4738425 20.8264151,68.8034231 C22.4150943,68.2362897 23.5283019,66.623152 23.4981132,64.9442869 C23.5132076,52.8091343 23.490566,40.6721037 23.509434,28.5388291 C23.4698113,27.9998646 23.9830189,27.5547963 24.509434,27.6055003 C25.9018868,27.5961107 27.2962264,27.586721 28.6886793,27.6092561 C29.2698113,27.5961107 29.6698113,28.1763895 29.5981132,28.7191099 C29.5924528,40.9312576 29.6132076,53.143405 29.5886793,65.3555524 C29.5924528,68.6099967 28.2490566,72.1517637 25.2245283,73.7442442 C21.4981132,75.6653618 16.8924528,75.2578519 13.2113208,73.4156073 C10.0245283,71.8325164 6.98301888,69.9639809 3.85283019,68.2682143 C1.67735849,67.1470931 0.173584906,64.8053202 0.188679245,62.3508722 L0.188679245,25.3482342 C0.166037736,22.9407341 1.59622642,20.6214965 3.71698113,19.4853518 C14.6150943,13.3633156 25.5113208,7.23752369 36.4075472,1.11360964 L36.4075472,1.11360964 L36.4075472,1.11360964 Z" id="Shape"></path>
                        <path d="M45.9150944,26.7454106 C50.6679244,26.4411867 55.7566038,26.5651297 60.0339622,28.8956349 C63.3452831,30.6815417 65.1811322,34.4298804 65.2396225,38.0918346 C65.1471697,38.5857287 64.6283019,38.858028 64.1547169,38.8242254 C62.7754716,38.8223474 61.3962266,38.8430045 60.0169813,38.8148357 C59.4320756,38.8373708 59.0924528,38.3002843 59.0188678,37.7857327 C58.6226416,36.0336284 57.6622641,34.2984258 56.0056603,33.4533592 C53.4622641,32.1857599 50.5132075,32.2496094 47.7396225,32.2759002 C45.7150944,32.382942 43.5377359,32.5575889 41.8226416,33.7425599 C40.5056603,34.6402079 40.1056603,36.452406 40.5754716,37.9115536 C41.0188678,38.959436 42.2339622,39.2974624 43.2283019,39.6091982 C48.9566038,41.1002708 55.026415,40.9519147 60.6452831,42.9143465 C62.9716981,43.7143425 65.2471697,45.2692645 66.0433963,47.6936659 C67.0849056,50.9424765 66.6283019,54.8260259 64.3056603,57.4344639 C62.4226416,59.5809324 59.6792453,60.749002 56.9433963,61.3837408 C53.3037734,62.1912485 49.526415,62.2119056 45.8301888,61.8532221 C42.3547169,61.4588576 38.7377359,60.5499419 36.0547169,58.1931456 C33.7603775,56.2100566 32.6396225,53.1208698 32.7509434,50.1387245 C32.7773584,49.6354406 33.2811322,49.2842688 33.7660378,49.3255831 C35.1547169,49.3143153 36.5433963,49.3105596 37.9320756,49.3274611 C38.4867925,49.2880245 38.8981131,49.7650175 38.926415,50.2852028 C39.1830188,51.9546783 39.8132075,53.7067826 41.2754716,54.696449 C44.0981131,56.5086467 47.6396225,56.3847039 50.8716981,56.4354079 C53.5490566,56.3170984 56.5547169,56.2814178 58.7396225,54.519924 C59.8924528,53.515234 60.2339622,51.8344911 59.9226416,50.3884886 C59.5849056,49.1678373 58.3018869,48.598826 57.2,48.2269967 C51.5452831,46.4467238 45.4075472,47.09273 39.8075472,45.0795942 C37.5339622,44.2795982 35.3358491,42.7678682 34.4622641,40.4429968 C33.2433963,37.1528719 33.8018869,33.0834079 36.3679244,30.5632324 C38.8698113,28.0562023 42.4811322,27.0909488 45.9150944,26.7454106 L45.9150944,26.7454106 L45.9150944,26.7454106 Z" id="Shape"></path>
                    </g>
                </g>
            </g>
        </g>
    </g>
</svg>